<svg width="430" height="79" viewBox="0 0 430 79" fill="none" xmlns="http://www.w3.org/2000/svg">
<g filter="url(#filter0_d_1_1045)">
<path d="M4 62.8438V7.84375H10.4688V31.375H19.2812V7.84375H25.75V62.8438H19.2812V36.6562H10.4688V62.8438H4ZM44.4375 63.4062C42.1875 63.4062 40.375 63.0208 39 62.25C37.6458 61.4583 36.6146 60.3438 35.9062 58.9062C35.1979 57.4688 34.7188 55.75 34.4688 53.75C34.2396 51.7292 34.125 49.5 34.125 47.0625V30.5C34.125 28.2917 34.2812 26.2708 34.5938 24.4375C34.9062 22.5833 35.4479 20.9896 36.2188 19.6562C36.9896 18.3021 38.0625 17.2604 39.4375 16.5312C40.8125 15.7812 42.5625 15.4062 44.6875 15.4062C46.8333 15.4062 48.5625 15.7812 49.875 16.5312C51.1875 17.2812 52.1771 18.3438 52.8438 19.7188C53.5312 21.0729 53.9896 22.6979 54.2188 24.5938C54.4479 26.4688 54.5625 28.5312 54.5625 30.7812V39.625H40.5625V48.9688C40.5625 51.9271 40.7604 54.1875 41.1562 55.75C41.5729 57.2917 42.6875 58.0625 44.5 58.0625C45.6875 58.0625 46.5312 57.6979 47.0312 56.9688C47.5521 56.2188 47.8646 55.1771 47.9688 53.8438C48.0938 52.4896 48.1562 50.8958 48.1562 49.0625V45.2812H54.4375V47.2812C54.4375 49.7188 54.3333 51.9271 54.125 53.9062C53.9375 55.8854 53.5208 57.5833 52.875 59C52.2292 60.4167 51.2292 61.5104 49.875 62.2812C48.5417 63.0312 46.7292 63.4062 44.4375 63.4062ZM40.5312 35.2812H48.1562V29.3125C48.1562 27.4375 48.0938 25.8646 47.9688 24.5938C47.8438 23.3021 47.5417 22.3333 47.0625 21.6875C46.5833 21.0208 45.7917 20.6875 44.6875 20.6875C43.4583 20.6875 42.5417 21.0625 41.9375 21.8125C41.3542 22.5625 40.9688 23.6042 40.7812 24.9375C40.6146 26.25 40.5312 27.7812 40.5312 29.5312V35.2812ZM40.2188 11.5938L43.1562 0H49.75L43.6875 11.5938H40.2188ZM62.4062 62.8438V15.9688H68.8438V21.1875C69.3854 19.375 70.3229 17.9583 71.6562 16.9375C73.0104 15.9167 74.7292 15.4062 76.8125 15.4062C76.8542 15.4062 76.875 15.6875 76.875 16.25C76.8958 16.7917 76.9062 17.4167 76.9062 18.125C76.9062 18.8333 76.9062 19.4688 76.9062 20.0312C76.9062 20.5729 76.9062 20.8438 76.9062 20.8438C75.9062 20.8438 74.9062 20.9688 73.9062 21.2188C72.9062 21.4479 71.9688 21.8542 71.0938 22.4375C70.2188 23 69.4688 23.7708 68.8438 24.75V62.8438H62.4062ZM82.5312 62.8438V15.9688H88.9688V62.8438H82.5312ZM82.5312 11.6562V5.78125H88.9688V11.6562H82.5312ZM106.375 63.125C104.375 63.125 102.865 62.8854 101.844 62.4062C100.823 61.9271 100.135 61.1562 99.7812 60.0938C99.4271 59.0312 99.25 57.625 99.25 55.875V21.0938H94.9688V16.3438H99.25V7.84375H105.656V16.3438H110.719V21.0938H105.656V55.3125C105.656 56.1042 105.76 56.6979 105.969 57.0938C106.177 57.4688 106.646 57.7188 107.375 57.8438C108.104 57.9688 109.24 58.0312 110.781 58.0312V63.125H106.375ZM123.812 63.25C120.979 63.25 118.938 62.1562 117.688 59.9688C116.438 57.7604 115.802 54.7083 115.781 50.8125V46.25C115.781 44.1875 116.135 42.4792 116.844 41.125C117.552 39.75 118.552 38.6042 119.844 37.6875C121.135 36.7708 122.656 35.9479 124.406 35.2188C126.156 34.4688 128.073 33.6771 130.156 32.8438V29.2188C130.156 27.2188 130.094 25.6042 129.969 24.375C129.844 23.125 129.521 22.2083 129 21.625C128.5 21.0417 127.688 20.75 126.562 20.75C125.458 20.75 124.625 21.0417 124.062 21.625C123.521 22.2083 123.167 23.125 123 24.375C122.833 25.625 122.75 27.25 122.75 29.25V30.875H116.375V29.5312C116.375 27.5312 116.5 25.6771 116.75 23.9688C117 22.2396 117.479 20.7396 118.188 19.4688C118.896 18.1979 119.927 17.2083 121.281 16.5C122.656 15.7708 124.458 15.4062 126.688 15.4062C128.812 15.4062 130.521 15.75 131.812 16.4375C133.125 17.1042 134.125 18.0938 134.812 19.4062C135.521 20.7188 136 22.3438 136.25 24.2812C136.5 26.1979 136.625 28.4167 136.625 30.9375V62.8438H130.188V58.7812C130 59.4062 129.635 60.0729 129.094 60.7812C128.552 61.4688 127.844 62.0521 126.969 62.5312C126.094 63.0104 125.042 63.25 123.812 63.25ZM125.625 58.0625C126.75 58.0625 127.719 57.7083 128.531 57C129.344 56.2708 129.885 55.5521 130.156 54.8438V37C128.552 37.7083 127.229 38.3542 126.188 38.9375C125.167 39.5 124.365 40.0938 123.781 40.7188C123.219 41.3438 122.823 42.0938 122.594 42.9688C122.365 43.8438 122.25 44.9479 122.25 46.2812V50.625C122.25 53.2708 122.479 55.1771 122.938 56.3438C123.396 57.4896 124.292 58.0625 125.625 58.0625ZM154.375 70C152.229 70.0625 150.292 69.8229 148.562 69.2812C146.854 68.7396 145.385 67.9792 144.156 67L146.469 62.625C147.385 63.25 148.469 63.8021 149.719 64.2812C150.969 64.7604 152.417 64.9792 154.062 64.9375C155.521 64.8958 156.646 64.3438 157.438 63.2812C158.25 62.2396 158.656 60.8333 158.656 59.0625V54.5938C158.052 56.1354 157.219 57.1667 156.156 57.6875C155.094 58.2083 153.885 58.4688 152.531 58.4688C150.344 58.4688 148.646 57.8333 147.438 56.5625C146.25 55.2917 145.417 53.5521 144.938 51.3438C144.479 49.1354 144.25 46.6354 144.25 43.8438V30.4062C144.25 27.5521 144.521 24.9896 145.062 22.7188C145.625 20.4479 146.552 18.6562 147.844 17.3438C149.135 16.0104 150.885 15.3646 153.094 15.4062C154.427 15.4271 155.573 15.7604 156.531 16.4062C157.51 17.0521 158.219 18.0521 158.656 19.4062V15.9688H165.062V58.4688C165.062 59.8021 164.896 61.1354 164.562 62.4688C164.25 63.8021 163.698 65.0208 162.906 66.125C162.135 67.25 161.052 68.1562 159.656 68.8438C158.281 69.5521 156.521 69.9375 154.375 70ZM155 53.375C155.833 53.375 156.521 53.125 157.062 52.625C157.604 52.125 158 51.1979 158.25 49.8438C158.521 48.4688 158.656 46.5 158.656 43.9375V29.4688C158.656 26.6146 158.396 24.4479 157.875 22.9688C157.375 21.4896 156.312 20.75 154.688 20.75C153.5 20.75 152.615 21.125 152.031 21.875C151.469 22.6042 151.104 23.6146 150.938 24.9062C150.771 26.1979 150.688 27.6979 150.688 29.4062V44C150.688 47.1042 150.969 49.4479 151.531 51.0312C152.094 52.5938 153.25 53.375 155 53.375ZM183.688 63.4062C181.438 63.4062 179.625 63.0208 178.25 62.25C176.896 61.4583 175.865 60.3438 175.156 58.9062C174.448 57.4688 173.969 55.75 173.719 53.75C173.49 51.7292 173.375 49.5 173.375 47.0625V30.5C173.375 28.2917 173.531 26.2708 173.844 24.4375C174.156 22.5833 174.698 20.9896 175.469 19.6562C176.24 18.3021 177.312 17.2604 178.688 16.5312C180.062 15.7812 181.812 15.4062 183.938 15.4062C186.083 15.4062 187.812 15.7812 189.125 16.5312C190.438 17.2812 191.427 18.3438 192.094 19.7188C192.781 21.0729 193.24 22.6979 193.469 24.5938C193.698 26.4688 193.812 28.5312 193.812 30.7812V39.625H179.812V48.9688C179.812 51.9271 180.01 54.1875 180.406 55.75C180.823 57.2917 181.938 58.0625 183.75 58.0625C184.938 58.0625 185.781 57.6979 186.281 56.9688C186.802 56.2188 187.115 55.1771 187.219 53.8438C187.344 52.4896 187.406 50.8958 187.406 49.0625V45.2812H193.688V47.2812C193.688 49.7188 193.583 51.9271 193.375 53.9062C193.188 55.8854 192.771 57.5833 192.125 59C191.479 60.4167 190.479 61.5104 189.125 62.2812C187.792 63.0312 185.979 63.4062 183.688 63.4062ZM179.781 35.2812H187.406V29.3125C187.406 27.4375 187.344 25.8646 187.219 24.5938C187.094 23.3021 186.792 22.3333 186.312 21.6875C185.833 21.0208 185.042 20.6875 183.938 20.6875C182.708 20.6875 181.792 21.0625 181.188 21.8125C180.604 22.5625 180.219 23.6042 180.031 24.9375C179.865 26.25 179.781 27.7812 179.781 29.5312V35.2812ZM217 62.8438V7.84375H226.938C229.75 7.84375 231.927 8.26042 233.469 9.09375C235.01 9.92708 236.094 11.25 236.719 13.0625C237.344 14.875 237.667 17.2604 237.688 20.2188V21.4062C237.688 24.4688 237.396 26.9688 236.812 28.9062C236.25 30.8229 235.156 32.2083 233.531 33.0625C234.844 33.5833 235.865 34.4896 236.594 35.7812C237.323 37.0729 237.833 38.625 238.125 40.4375C238.438 42.25 238.594 44.1979 238.594 46.2812V47.4375C238.552 51.0208 238.188 53.9479 237.5 56.2188C236.833 58.4896 235.719 60.1667 234.156 61.25C232.594 62.3125 230.458 62.8438 227.75 62.8438H217ZM223.469 57.625H227.438C228.667 57.625 229.615 57.3229 230.281 56.7188C230.948 56.1146 231.417 55.0625 231.688 53.5625C231.958 52.0417 232.094 49.9375 232.094 47.25V45.3438C232.094 41.9479 231.823 39.5104 231.281 38.0312C230.74 36.5312 229.573 35.7812 227.781 35.7812H223.469V57.625ZM223.469 30.8125H227.125C228 30.8125 228.708 30.7188 229.25 30.5312C229.792 30.3229 230.208 29.9167 230.5 29.3125C230.812 28.7083 231.021 27.8125 231.125 26.625C231.229 25.4375 231.281 23.8438 231.281 21.8438V20.3125C231.281 18.2292 231.125 16.6771 230.812 15.6562C230.5 14.6354 230 13.9583 229.312 13.625C228.646 13.2917 227.76 13.125 226.656 13.125H223.469V30.8125ZM252.75 63.25C249.917 63.25 247.875 62.1562 246.625 59.9688C245.375 57.7604 244.74 54.7083 244.719 50.8125V46.25C244.719 44.1875 245.073 42.4792 245.781 41.125C246.49 39.75 247.49 38.6042 248.781 37.6875C250.073 36.7708 251.594 35.9479 253.344 35.2188C255.094 34.4688 257.01 33.6771 259.094 32.8438V29.2188C259.094 27.2188 259.031 25.6042 258.906 24.375C258.781 23.125 258.458 22.2083 257.938 21.625C257.438 21.0417 256.625 20.75 255.5 20.75C254.396 20.75 253.562 21.0417 253 21.625C252.458 22.2083 252.104 23.125 251.938 24.375C251.771 25.625 251.688 27.25 251.688 29.25V30.875H245.312V29.5312C245.312 27.5312 245.438 25.6771 245.688 23.9688C245.938 22.2396 246.417 20.7396 247.125 19.4688C247.833 18.1979 248.865 17.2083 250.219 16.5C251.594 15.7708 253.396 15.4062 255.625 15.4062C257.75 15.4062 259.458 15.75 260.75 16.4375C262.062 17.1042 263.062 18.0938 263.75 19.4062C264.458 20.7188 264.938 22.3438 265.188 24.2812C265.438 26.1979 265.562 28.4167 265.562 30.9375V62.8438H259.125V58.7812C258.938 59.4062 258.573 60.0729 258.031 60.7812C257.49 61.4688 256.781 62.0521 255.906 62.5312C255.031 63.0104 253.979 63.25 252.75 63.25ZM254.562 58.0625C255.688 58.0625 256.656 57.7083 257.469 57C258.281 56.2708 258.823 55.5521 259.094 54.8438V37C257.49 37.7083 256.167 38.3542 255.125 38.9375C254.104 39.5 253.302 40.0938 252.719 40.7188C252.156 41.3438 251.76 42.0938 251.531 42.9688C251.302 43.8438 251.188 44.9479 251.188 46.2812V50.625C251.188 53.2708 251.417 55.1771 251.875 56.3438C252.333 57.4896 253.229 58.0625 254.562 58.0625ZM273.844 62.8438V15.9688H280.25V20.8438C280.667 19.3646 281.5 18.0833 282.75 17C284.021 15.9167 285.625 15.375 287.562 15.375C289.104 15.375 290.448 15.75 291.594 16.5C292.74 17.25 293.604 18.4583 294.188 20.125C294.958 18.7083 296.021 17.5625 297.375 16.6875C298.729 15.8125 300.312 15.375 302.125 15.375C304.604 15.375 306.49 16.2604 307.781 18.0312C309.073 19.7812 309.719 22.3854 309.719 25.8438V62.8438H303.312V25.6562C303.312 23.8854 302.969 22.6562 302.281 21.9688C301.594 21.2604 300.688 20.9062 299.562 20.9062C297.958 20.9062 296.792 21.2708 296.062 22C295.354 22.7083 295 23.9896 295 25.8438V62.8438H288.562V25.625C288.562 23.9583 288.24 22.7604 287.594 22.0312C286.948 21.2812 286.042 20.9062 284.875 20.9062C283.354 20.9062 282.198 21.3958 281.406 22.375C280.635 23.3542 280.25 24.6771 280.25 26.3438V62.8438H273.844ZM318.719 62.8438V15.9688H325.156V62.8438H318.719ZM318.719 11.6562V5.78125H325.156V11.6562H318.719ZM334.406 62.8438V7.25H340.812V62.8438H334.406ZM359.75 63.4062C357.5 63.4062 355.688 63.0208 354.312 62.25C352.958 61.4583 351.927 60.3438 351.219 58.9062C350.51 57.4688 350.031 55.75 349.781 53.75C349.552 51.7292 349.438 49.5 349.438 47.0625V30.5C349.438 28.2917 349.594 26.2708 349.906 24.4375C350.219 22.5833 350.76 20.9896 351.531 19.6562C352.302 18.3021 353.375 17.2604 354.75 16.5312C356.125 15.7812 357.875 15.4062 360 15.4062C362.146 15.4062 363.875 15.7812 365.188 16.5312C366.5 17.2812 367.49 18.3438 368.156 19.7188C368.844 21.0729 369.302 22.6979 369.531 24.5938C369.76 26.4688 369.875 28.5312 369.875 30.7812V39.625H355.875V48.9688C355.875 51.9271 356.073 54.1875 356.469 55.75C356.885 57.2917 358 58.0625 359.812 58.0625C361 58.0625 361.844 57.6979 362.344 56.9688C362.865 56.2188 363.177 55.1771 363.281 53.8438C363.406 52.4896 363.469 50.8958 363.469 49.0625V45.2812H369.75V47.2812C369.75 49.7188 369.646 51.9271 369.438 53.9062C369.25 55.8854 368.833 57.5833 368.188 59C367.542 60.4167 366.542 61.5104 365.188 62.2812C363.854 63.0312 362.042 63.4062 359.75 63.4062ZM355.844 35.2812H363.469V29.3125C363.469 27.4375 363.406 25.8646 363.281 24.5938C363.156 23.3021 362.854 22.3333 362.375 21.6875C361.896 21.0208 361.104 20.6875 360 20.6875C358.771 20.6875 357.854 21.0625 357.25 21.8125C356.667 22.5625 356.281 23.6042 356.094 24.9375C355.927 26.25 355.844 27.7812 355.844 29.5312V35.2812ZM355.531 11.5938L358.469 0H365.062L359 11.5938H355.531ZM377.781 62.8438V7.25H384.188V38.25L393.406 15.9688H399.875L390 39.125L400.406 62.8438H393.812L384.188 40.0312V62.8438H377.781ZM415.312 63.4062C413.062 63.4062 411.25 63.0208 409.875 62.25C408.521 61.4583 407.49 60.3438 406.781 58.9062C406.073 57.4688 405.594 55.75 405.344 53.75C405.115 51.7292 405 49.5 405 47.0625V30.5C405 28.2917 405.156 26.2708 405.469 24.4375C405.781 22.5833 406.323 20.9896 407.094 19.6562C407.865 18.3021 408.938 17.2604 410.312 16.5312C411.688 15.7812 413.438 15.4062 415.562 15.4062C417.708 15.4062 419.438 15.7812 420.75 16.5312C422.062 17.2812 423.052 18.3438 423.719 19.7188C424.406 21.0729 424.865 22.6979 425.094 24.5938C425.323 26.4688 425.438 28.5312 425.438 30.7812V39.625H411.438V48.9688C411.438 51.9271 411.635 54.1875 412.031 55.75C412.448 57.2917 413.562 58.0625 415.375 58.0625C416.562 58.0625 417.406 57.6979 417.906 56.9688C418.427 56.2188 418.74 55.1771 418.844 53.8438C418.969 52.4896 419.031 50.8958 419.031 49.0625V45.2812H425.312V47.2812C425.312 49.7188 425.208 51.9271 425 53.9062C424.812 55.8854 424.396 57.5833 423.75 59C423.104 60.4167 422.104 61.5104 420.75 62.2812C419.417 63.0312 417.604 63.4062 415.312 63.4062ZM411.406 35.2812H419.031V29.3125C419.031 27.4375 418.969 25.8646 418.844 24.5938C418.719 23.3021 418.417 22.3333 417.938 21.6875C417.458 21.0208 416.667 20.6875 415.562 20.6875C414.333 20.6875 413.417 21.0625 412.812 21.8125C412.229 22.5625 411.844 23.6042 411.656 24.9375C411.49 26.25 411.406 27.7812 411.406 29.5312V35.2812ZM411.094 11.5938L414.031 0H420.625L414.562 11.5938H411.094Z" fill="white"/>
</g>
<defs>
<filter id="filter0_d_1_1045" x="0" y="0" width="429.438" height="78.0938" filterUnits="userSpaceOnUse" color-interpolation-filters="sRGB">
<feFlood flood-opacity="0" result="BackgroundImageFix"/>
<feColorMatrix in="SourceAlpha" type="matrix" values="0 0 0 0 0 0 0 0 0 0 0 0 0 0 0 0 0 0 127 0" result="hardAlpha"/>
<feOffset dy="4"/>
<feGaussianBlur stdDeviation="2"/>
<feComposite in2="hardAlpha" operator="out"/>
<feColorMatrix type="matrix" values="0 0 0 0 0 0 0 0 0 0 0 0 0 0 0 0 0 0 0.25 0"/>
<feBlend mode="normal" in2="BackgroundImageFix" result="effect1_dropShadow_1_1045"/>
<feBlend mode="normal" in="SourceGraphic" in2="effect1_dropShadow_1_1045" result="shape"/>
</filter>
</defs>
</svg>
